HIERARCHY
ROOT SpineBase
{
  OFFSET 0.000000 0.000000 0.000000
  CHANNELS 6 Xposition Yposition Zposition Zrotation Xrotation Yrotation
  JOINT SpineMid
  {
    OFFSET 0.000000 28.752877 0.000000
    CHANNELS 3 Zrotation Xrotation Yrotation
    JOINT SpineShoulder
    {
      OFFSET -0.041553 21.359722 -0.685418
      CHANNELS 3 Zrotation Xrotation Yrotation
      JOINT Neck
      {
        OFFSET -0.036182 7.066343 -0.524347
        CHANNELS 3 Zrotation Xrotation Yrotation
        JOINT Head
        {
          OFFSET -1.930995 12.311294 -0.072484
          CHANNELS 3 Zrotation Xrotation Yrotation
          End Site
          {
            OFFSET 0 0 0
          }
        }
      }
      JOINT ShoulderLeft
      {
        OFFSET -15.994513 -2.859271 5.372175
        CHANNELS 3 Zrotation Xrotation Yrotation
        JOINT ElbowLeft
        {
          OFFSET -3.706372 -24.860125 3.179032
          CHANNELS 3 Zrotation Xrotation Yrotation
          JOINT WristLeft
          {
            OFFSET -3.659965 -20.896461 -3.416175
            CHANNELS 3 Zrotation Xrotation Yrotation
            JOINT HandLeft
            {
              OFFSET 0.185202 -6.586334 -2.007263
              CHANNELS 3 Zrotation Xrotation Yrotation
              JOINT HandTipLeft
              {
                OFFSET -1.151663 -6.489746 -1.114868
                CHANNELS 3 Zrotation Xrotation Yrotation
                End Site
                {
                  OFFSET 0 0 0
                }
              }
              JOINT ThumbLeft
              {
                OFFSET 3.871050 0.883295 -2.740619
                CHANNELS 3 Zrotation Xrotation Yrotation
                End Site
                {
                  OFFSET 0 0 0
                }
              }
            }
          }
        }
      }
      JOINT ShoulderRight
      {
        OFFSET 14.656544 -2.837327 -6.195190
        CHANNELS 3 Zrotation Xrotation Yrotation
        JOINT ElbowRight
        {
          OFFSET 5.515772 -24.914743 -3.192403
          CHANNELS 3 Zrotation Xrotation Yrotation
          JOINT WristRight
          {
            OFFSET -0.711271 -22.259580 -3.691524
            CHANNELS 3 Zrotation Xrotation Yrotation
            JOINT HandRight
            {
              OFFSET -2.509736 -6.445599 -1.312806
              CHANNELS 3 Zrotation Xrotation Yrotation
              JOINT HandTipRight
              {
                OFFSET -1.016194 -5.846676 -1.027776
                CHANNELS 3 Zrotation Xrotation Yrotation
                End Site
                {
                  OFFSET 0 0 0
                }
              }
              JOINT ThumbRight
              {
                OFFSET -2.946421 -0.809068 -1.919108
                CHANNELS 3 Zrotation Xrotation Yrotation
                End Site
                {
                  OFFSET 0 0 0
                }
              }
            }
          }
        }
      }
    }
  }
  JOINT HipLeft
  {
    OFFSET -5.858608 0.325066 -1.440128
    CHANNELS 3 Zrotation Xrotation Yrotation
    JOINT KneeLeft
    {
      OFFSET -6.934418 -27.552128 6.331270
      CHANNELS 3 Zrotation Xrotation Yrotation
      JOINT AnkleLeft
      {
        OFFSET -2.091769 -39.924740 9.342040
        CHANNELS 3 Zrotation Xrotation Yrotation
        JOINT FootLeft
        {
          OFFSET -3.437542 -5.040414 -10.160550
          CHANNELS 3 Zrotation Xrotation Yrotation
          End Site
          {
            OFFSET 0 0 0
          }
        }
      }
    }
  }
  JOINT HipRight
  {
    OFFSET 5.502972 0.924527 -5.126048
    CHANNELS 3 Zrotation Xrotation Yrotation
    JOINT KneeRight
    {
      OFFSET 4.993372 -25.461859 1.583185
      CHANNELS 3 Zrotation Xrotation Yrotation
      JOINT AnkleRight
      {
        OFFSET 5.065448 -41.877746 10.041424
        CHANNELS 3 Zrotation Xrotation Yrotation
        JOINT FootRight
        {
          OFFSET -4.403357 -4.175287 -10.064883
          CHANNELS 3 Zrotation Xrotation Yrotation
          End Site
          {
            OFFSET 0 0 0
          }
        }
      }
    }
  }
}
MOTION
Frames: 12
Frame Time: 0.033333
20.030842 104.440008 367.945665 -0.000000 0.000000 17.974080 -0.000000 0.000000 -17.974080 -0.000000 0.000000 0.000000 -0.000000 0.000000 0.000000 0.000000 0.000000 0.000000 -0.000000 0.000000 0.000000 -0.000000 0.000000 0.000000 -0.000000 0.000000 0.000000 -0.000000 0.000000 0.000000 0.000000 0.000000 0.000000 0.000000 0.000000 0.000000 -0.000000 0.000000 0.000000 -0.000000 0.000000 0.000000 -0.000000 0.000000 0.000000 -0.000000 0.000000 0.000000 0.000000 0.000000 0.000000 0.000000 0.000000 0.000000 -0.000000 0.000000 -17.974080 -0.000000 0.000000 0.000000 -0.000000 0.000000 0.000000 0.000000 0.000000 0.000000 -0.000000 0.000000 -17.974080 -0.000000 0.000000 0.000000 -0.000000 0.000000 0.000000 0.000000 0.000000 0.000000
20.057469 104.455895 367.943364 0.030426 0.010464 17.957634 -0.032170 -0.000574 -17.957636 -0.000000 0.000000 0.000000 -0.000000 0.000000 0.000000 0.000000 0.000000 0.000000 -0.000000 0.000000 0.000000 -0.000000 0.000000 0.000000 -0.000000 0.000000 0.000000 0.414094 3.387481 -0.681662 0.000000 0.000000 0.000000 0.000000 0.000000 0.000000 -0.000000 0.000000 0.000000 -0.000000 0.000000 0.000000 1.906189 -2.625776 0.685629 2.146798 6.378667 -2.270661 0.000000 0.000000 0.000000 0.000000 0.000000 0.000000 -0.032170 -0.000574 -17.957636 -0.000000 0.000000 0.000000 1.182313 -2.478583 -0.702769 0.000000 0.000000 0.000000 -0.032170 -0.000574 -17.957636 -0.000000 0.000000 0.000000 0.463864 1.914756 -3.035422 0.000000 0.000000 0.000000
20.072473 104.464537 367.942630 0.052387 0.013423 17.935554 -0.053975 0.003361 -17.935559 -0.000000 0.000000 0.000000 -0.000000 0.000000 0.000000 0.000000 0.000000 0.000000 -0.000000 0.000000 0.000000 -0.200157 -1.145750 0.231710 0.204830 1.144924 -0.235758 0.608841 5.927980 -1.179608 0.000000 0.000000 0.000000 0.000000 0.000000 0.000000 -0.000000 0.000000 0.000000 0.298401 0.964188 -0.082699 3.181352 -5.513903 1.367337 3.829117 10.984940 -4.307584 0.000000 0.000000 0.000000 0.000000 0.000000 0.000000 -0.053975 0.003361 -17.935559 -0.000000 0.000000 0.000000 2.046437 -4.145055 -1.337255 0.000000 0.000000 0.000000 0.543719 -1.117086 -18.045677 -1.986995 0.331177 -0.189035 1.885457 3.512875 -4.564993 0.000000 0.000000 0.000000
20.075854 104.465935 367.943462 0.065865 0.008868 17.907858 -0.065401 0.011814 -17.907856 -0.000000 0.000000 0.000000 -0.000000 0.000000 0.000000 0.000000 0.000000 0.000000 -0.000000 0.000000 0.000000 -0.247457 -1.511608 0.302497 0.255522 1.510266 -0.309130 0.562386 7.628849 -1.474236 0.000000 0.000000 0.000000 0.000000 0.000000 0.000000 -0.000000 0.000000 0.000000 0.445808 1.385183 -0.123354 4.309367 -7.274827 1.852168 5.002678 14.150364 -5.916587 0.000000 0.000000 0.000000 0.000000 0.000000 0.000000 -0.065401 0.011814 -17.907856 -0.000000 0.000000 0.000000 2.566222 -4.899648 -1.914733 0.000000 0.000000 0.000000 0.758105 -1.386160 -18.033420 -2.728084 0.261778 -0.296350 2.559290 4.132394 -5.327334 0.000000 0.000000 0.000000
20.067612 104.460086 367.945862 0.070849 -0.003203 17.874581 -0.066446 0.024795 -17.874565 -0.000000 0.000000 0.000000 -0.000000 0.000000 0.000000 0.000000 0.000000 0.000000 -0.000000 0.000000 0.000000 -0.258761 -1.732065 0.342491 0.269231 1.730469 -0.350469 0.263262 8.508548 -1.558135 0.000000 0.000000 0.000000 0.000000 0.000000 0.000000 -0.000000 0.000000 0.000000 0.584564 1.738000 -0.160972 5.184788 -8.467600 2.180680 5.641102 16.134861 -6.994987 0.000000 0.000000 0.000000 0.000000 0.000000 0.000000 0.397443 0.794229 -18.051231 -0.202668 -0.875293 0.171803 2.735187 -4.700265 -2.435900 0.000000 0.000000 0.000000 0.946258 -1.488615 -17.993974 -3.292858 0.070741 -0.408234 3.023579 4.109733 -5.267361 0.000000 0.000000 0.000000
20.047748 104.446993 367.949829 0.067335 -0.022788 17.835780 -0.057119 0.042316 -17.835746 -0.000000 0.000000 0.000000 -0.000000 0.000000 0.000000 0.000000 0.000000 0.000000 -0.000000 0.000000 0.000000 -0.233437 -1.802615 0.351016 -0.648632 1.373064 -0.074295 0.641724 9.015390 -1.699421 0.000000 0.000000 0.000000 0.000000 0.000000 0.000000 -0.000000 0.000000 0.000000 0.708766 2.004328 -0.193470 5.839754 -9.134694 2.341869 5.733329 17.115008 -7.497668 0.000000 0.000000 0.000000 0.000000 0.000000 0.000000 0.313868 0.966575 -18.073467 -0.065970 -0.993741 0.233883 2.565414 -3.560966 -2.887640 0.000000 0.000000 0.000000 1.113776 -1.432586 -17.928861 -3.674347 -0.226847 -0.521846 3.279217 3.415271 -4.382990 0.000000 0.000000 0.000000
20.025306 104.423210 367.947656 0.043843 -0.050376 17.827068 -0.026316 0.061380 -17.827034 -0.000000 0.000000 0.000000 -0.000000 0.000000 0.000000 0.000000 0.000000 0.000000 -0.000000 0.000000 0.000000 -0.225219 -1.642948 0.322011 -0.847230 0.981563 0.006562 -1.990911 8.183380 -0.869606 0.000000 0.000000 0.000000 0.000000 0.000000 0.000000 -0.000000 0.000000 0.000000 0.651357 2.216460 -0.190877 5.978007 -8.658475 2.033343 4.666786 14.859869 -6.329870 0.000000 0.000000 0.000000 0.000000 0.000000 0.000000 0.053687 1.319474 -18.207294 0.317143 -1.220097 0.382673 1.490634 1.378099 -3.901345 0.000000 0.000000 0.000000 1.271891 -1.220787 -17.873928 -3.932191 -0.738017 -0.667088 3.487543 1.021426 -1.642515 0.000000 0.000000 0.000000
19.994113 104.394260 367.951006 0.019387 -0.072336 17.802571 0.003657 0.074799 -17.802562 -0.000000 0.000000 0.000000 0.691762 -0.574806 -0.082534 0.000000 0.000000 0.000000 -0.000000 0.000000 0.000000 -0.091030 -1.354288 0.251468 -1.287039 0.559757 0.168660 -1.868698 4.462689 -0.344529 0.000000 0.000000 0.000000 0.000000 0.000000 0.000000 -0.000000 0.000000 0.000000 0.753182 2.178378 -0.208231 6.229900 -8.248987 1.830877 2.924119 15.419083 -5.773032 0.000000 0.000000 0.000000 0.000000 0.000000 0.000000 -0.278516 1.288867 -18.215769 0.647636 -1.064980 0.422585 1.211022 1.376868 -3.337165 0.000000 0.000000 0.000000 1.303186 -0.821750 -17.789631 -3.839126 -1.269684 -0.781135 3.629666 -0.033099 -0.587606 0.000000 0.000000 0.000000
19.967218 104.360733 367.944654 0.037489 -0.097701 17.833370 -0.005767 0.104488 -17.833333 -0.000000 0.000000 0.000000 0.942357 -0.805041 -0.113950 0.000000 0.000000 0.000000 -0.000000 0.000000 0.000000 0.116870 -0.934274 0.145706 -1.912693 -0.026951 0.392197 -1.688694 2.917210 -0.162197 0.000000 0.000000 0.000000 0.000000 0.000000 0.000000 -0.000000 0.000000 0.000000 0.817929 1.999399 -0.213246 6.430578 -7.024078 1.288148 1.605061 13.333853 -4.577780 0.000000 0.000000 0.000000 0.000000 0.000000 0.000000 -0.657479 1.386874 -18.314602 1.021807 -1.012508 0.498781 0.116877 5.179995 -3.461643 0.000000 0.000000 0.000000 0.972225 -0.551746 -17.822925 -3.456922 -1.427687 -0.794427 3.759744 0.514501 -1.503426 0.000000 0.000000 0.000000
19.887033 104.333865 367.963527 0.012337 -0.158395 17.709685 0.036431 0.154641 -17.709717 -0.000000 0.000000 0.000000 1.294136 -1.086642 -0.150275 0.000000 0.000000 0.000000 -0.676347 -0.597579 -0.000923 0.676375 0.597548 -0.006132 -2.608737 -1.362061 0.728962 -0.163964 3.409040 -0.555363 0.000000 0.000000 0.000000 0.000000 0.000000 0.000000 -0.522664 -0.862346 -0.128130 1.655194 2.705038 -0.161874 6.481442 -6.273281 0.985140 0.706057 12.487539 -3.975480 0.000000 0.000000 0.000000 0.000000 0.000000 0.000000 -0.960018 1.606830 -18.285423 2.211561 -1.172576 0.815075 -1.966906 9.768814 -3.669537 0.000000 0.000000 0.000000 1.792107 0.581719 -17.441122 -3.714665 -2.740474 -1.098035 3.500651 -3.007350 2.957498 0.000000 0.000000 0.000000
19.761439 104.302967 368.012410 -0.040186 -0.268445 17.427541 0.118741 0.244086 -17.427888 -0.000000 0.000000 0.000000 1.811673 -1.281320 -0.169621 0.000000 0.000000 0.000000 -0.753558 -0.888141 0.030151 0.754116 0.887668 -0.041833 -3.607035 -1.277549 1.027871 0.770858 2.263274 -0.704730 0.000000 0.000000 0.000000 0.000000 0.000000 0.000000 -0.535115 -1.086419 -0.177431 1.616874 2.585417 -0.095327 6.607766 -5.790824 0.844755 -0.334494 10.754230 -3.208546 0.000000 0.000000 0.000000 0.000000 0.000000 0.000000 -0.987542 1.928241 -18.085846 2.749387 -1.564110 1.015804 -2.637010 10.532051 -3.458830 0.000000 0.000000 0.000000 1.538585 0.517335 -17.224019 -3.095304 -2.018114 -0.860834 3.038085 -3.492027 3.158560 0.000000 0.000000 0.000000
19.590544 104.277481 368.066256 -0.034116 -0.387525 17.173660 0.147022 0.360173 -17.174237 -0.000000 0.000000 0.000000 2.108215 -1.344597 -0.173239 0.000000 0.000000 0.000000 -0.846875 -1.128041 0.051428 1.626002 1.324299 -0.246716 -5.135042 -1.709433 1.382007 0.340257 1.714240 -0.584109 0.000000 0.000000 0.000000 0.000000 0.000000 0.000000 -0.502177 -1.277131 -0.224540 1.465627 2.490157 -0.017960 6.597133 -5.846585 0.959498 -1.326601 10.080689 -2.808548 0.000000 0.000000 0.000000 0.000000 0.000000 0.000000 -1.453750 2.432936 -18.005399 3.695634 -1.940425 1.325784 -2.278804 8.752992 -3.797019 0.000000 0.000000 0.000000 1.383328 0.728606 -16.978963 -2.392711 -1.570199 -0.659211 2.309889 -2.685010 1.959954 0.000000 0.000000 0.000000
